<svg xmlns="http://www.w3.org/2000/svg" fill="none" viewBox="0 0 24 24">
  <title>Telegram</title>
  <path fill="currentColor" d="M23.643 4.937a2.164 2.164 0 0 0-1.482-1.543c-1.439-.4-10.818-2.878-10.818-2.878s-9.42-2.478-10.858-2.878A2.162 2.162 0 0 0 .37 3.328c-.073.296-.524 2.435-.523 2.435S-.298 9.495.22 10.13c.517.634 2.398 1.1 2.398 1.1l4.942 1.773s.896 3.723 1.206 5.056c.236 1.06.8 1.047.8 1.047s.9-.136 1.797-.794c.897-.659 2.526-1.955 3.41-2.707.885-.753 3.273-2.871 3.273-2.871l5.44 3.95s1.462.822 2.156-.583c.232-.474.75-1.487.75-1.487s2.046-8.978 2.244-10.003c.198-1.026-.182-1.54-.182-1.54ZM9.02 14.607 6.804 11.53 17.796 7.34l-8.776 7.268Z" />
</svg>
